<svg enable-background="new 0 0 24 24" height="512" viewBox="0 0 24 24" width="512" xmlns="http://www.w3.org/2000/svg"><g id="color"><g><path d="m22.585 21.197h-5.67c-.335 0-.608-.272-.608-.608v-5.63c0-.335.272-.608.608-.608h2.43c2.122 0 3.847 1.726 3.847 3.847v2.39c0 .337-.272.609-.607.609z" fill="#90a4ae"/></g><g><path d="m17.013 21.4h-14.1c-.373 0-.675-.302-.675-.675v-9.45c0-.373.302-.675.675-.675h13.425c.373 0 .675.302.675.675z" fill="#eceff1"/></g><g><path d="m7.5 23.323c-1.005 0-1.823-.818-1.823-1.823s.818-1.823 1.823-1.823 1.823.818 1.823 1.823-.818 1.823-1.823 1.823z" fill="#607d8b"/></g><g><path d="m19.5 23.323c-1.005 0-1.823-.818-1.823-1.823s.818-1.823 1.823-1.823 1.823.818 1.823 1.823-.818 1.823-1.823 1.823z" fill="#607d8b"/></g><g><path d="m5.696 11.532-5.396-2.37v-6.061l5.396 2.627z" fill="#ffb74d"/></g><g><path d="m11.7 9.162-5.396 2.37v-5.804l5.396-2.627z" fill="#ffa726"/></g><g><path d="m11.4 2.643-1.81.885-1.543.751-2.047.998-5.4-2.634 1.995-.874 1.728-.761 1.677-.73z" fill="#ffcc80"/></g></g><g id="reg"><g><path d="m5.997 12c-.103 0-.205-.021-.302-.063l-5.247-2.304c-.272-.12-.448-.389-.448-.687v-5.892c0-.258.133-.499.352-.636.22-.137.493-.153.726-.039l5.247 2.553c.258.126.422.388.422.675v5.643c0 .253-.128.489-.34.628-.124.081-.267.122-.41.122zm-4.497-3.543 3.747 1.645v-4.026l-3.747-1.823z"/></g><g><path d="m6.003 12c-.144 0-.286-.041-.41-.122-.212-.139-.34-.375-.34-.628v-5.643c0-.287.164-.549.422-.674l5.247-2.553c.233-.113.506-.097.726.039.219.136.352.376.352.635v5.893c0 .297-.176.567-.448.687l-5.247 2.304c-.097.041-.199.062-.302.062zm.75-5.924v4.025l3.747-1.644v-4.204zm4.497 2.87h.01z"/></g><g><path d="m.75 3.804c-.289 0-.564-.167-.688-.449-.166-.379.006-.822.386-.988l5.253-2.304c.192-.084.411-.084.603 0l5.247 2.304c.379.167.551.609.385.988-.166.378-.609.551-.988.385l-4.945-2.171-4.952 2.172c-.098.043-.2.063-.301.063z"/></g><g><path d="m8.75 7c-.414 0-.75-.336-.75-.75v-1.495l-4.754-2.194c-.376-.174-.54-.619-.367-.996.174-.375.617-.541.996-.366l5.15 2.377c.276.111.475.38.475.695v1.979c0 .414-.336.75-.75.75z"/></g><g><path d="m5.75 22h-3.5c-.414 0-.75-.336-.75-.75v-8.37c0-.414.336-.75.75-.75s.75.336.75.75v7.62h2.75c.414 0 .75.336.75.75s-.336.75-.75.75z"/></g><g><path d="m16.75 22h-7.52c-.414 0-.75-.336-.75-.75s.336-.75.75-.75h6.77v-9h-2.36c-.414 0-.75-.336-.75-.75s.336-.75.75-.75h3.11c.414 0 .75.336.75.75v10.5c0 .414-.336.75-.75.75z"/></g><g><path d="m23.25 22h-2.021c-.414 0-.75-.336-.75-.75s.336-.75.75-.75h1.271v-2.2c0-1.792-1.458-3.25-3.25-3.25h-1.75v5.45h.25c.414 0 .75.336.75.75s-.336.75-.75.75h-1c-.414 0-.75-.336-.75-.75v-6.95c0-.414.336-.75.75-.75h2.5c2.619 0 4.75 2.131 4.75 4.75v2.95c0 .414-.336.75-.75.75z"/></g><g><path d="m7.5 24c-1.378 0-2.5-1.122-2.5-2.5s1.122-2.5 2.5-2.5 2.5 1.122 2.5 2.5-1.122 2.5-2.5 2.5zm0-3.5c-.551 0-1 .449-1 1s.449 1 1 1 1-.449 1-1-.449-1-1-1z"/></g><g><path d="m19.5 24c-1.378 0-2.5-1.122-2.5-2.5s1.122-2.5 2.5-2.5 2.5 1.122 2.5 2.5-1.122 2.5-2.5 2.5zm0-3.5c-.551 0-1 .449-1 1s.449 1 1 1 1-.449 1-1-.449-1-1-1z"/></g></g></svg>