<?xml version="1.0" encoding="iso-8859-1"?>
<!-- Generator: Adobe Illustrator 19.0.0, SVG Export Plug-In . SVG Version: 6.00 Build 0)  -->
<svg version="1.1" id="Capa_1" xmlns="http://www.w3.org/2000/svg" xmlns:xlink="http://www.w3.org/1999/xlink" x="0px" y="0px"
	 viewBox="0 0 512 512" style="enable-background:new 0 0 512 512;" xml:space="preserve">
<g>
	<g>
		<g>
			<path d="M368,256c-0.116,61.741-50.261,111.698-112.002,111.582S144.3,317.321,144.416,255.58s50.261-111.698,112.002-111.582
				c10.554,0.02,21.052,1.534,31.182,4.498l8.96-30.72c-76.309-22.401-156.329,21.301-178.73,97.61
				c-22.401,76.309,21.301,156.329,97.61,178.73s156.329-21.301,178.73-97.61c3.862-13.156,5.825-26.795,5.83-40.506
				c0-1.728,0-3.456,0-5.152L368,252V256z"/>
			<path d="M363.488,224.4l30.704-8.992c-3.396-11.533-8.234-22.591-14.4-32.912l-27.504,16.352
				C357.076,206.863,360.839,215.447,363.488,224.4z"/>
			<path d="M357.84,154.192c-8.49-8.496-18.009-15.898-28.336-22.032l-16.352,27.504c8.036,4.776,15.443,10.538,22.048,17.152
				L357.84,154.192z"/>
			<rect x="240" width="32" height="64"/>
			<rect x="240" y="448" width="32" height="64"/>
			<rect x="38.065" y="88.009" transform="matrix(0.7071 0.7071 -0.7071 0.7071 94.6366 -20.4545)" width="67.888" height="32"/>
			
				<rect x="56.01" y="374.055" transform="matrix(-0.7071 -0.7071 0.7071 -0.7071 -165.5695 747.4175)" width="32" height="67.888"/>
			<rect x="424.001" y="70.045" transform="matrix(0.7071 0.7071 -0.7071 0.7071 202.4051 -280.6703)" width="32" height="67.888"/>
			
				<rect x="406.059" y="392.002" transform="matrix(-0.7071 -0.7071 0.7071 -0.7071 462.6306 1007.6322)" width="67.888" height="32"/>
			<rect y="240" width="64" height="32"/>
			<rect x="448" y="240" width="64" height="32"/>
		</g>
	</g>
</g>
<g>
</g>
<g>
</g>
<g>
</g>
<g>
</g>
<g>
</g>
<g>
</g>
<g>
</g>
<g>
</g>
<g>
</g>
<g>
</g>
<g>
</g>
<g>
</g>
<g>
</g>
<g>
</g>
<g>
</g>
</svg>
