<svg height="512pt" viewBox="0 0 512 512" width="512pt" xmlns="http://www.w3.org/2000/svg"><path d="m512 271v-30h-103.066406c-3.03125-31.132812-15.382813-59.574219-34.234375-82.484375l72.929687-72.929687-21.214844-21.210938-72.925781 72.925781c-22.914062-18.847656-51.351562-31.203125-82.488281-34.234375v-103.066406h-30v103.066406c-31.132812 3.03125-59.574219 15.386719-82.484375 34.234375l-72.925781-72.925781-21.214844 21.210938 72.929688 72.929687c-18.851563 22.910156-31.207032 51.351563-34.238282 82.484375h-103.066406v30h103.066406c3.03125 31.132812 15.386719 59.574219 34.234375 82.484375l-72.929687 72.929687 21.214844 21.210938 72.929687-72.925781c22.910156 18.847656 51.351563 31.203125 82.484375 34.234375v103.066406h30v-103.066406c31.132812-3.03125 59.574219-15.382813 82.484375-34.234375l72.925781 72.929687 21.214844-21.214844-72.929688-72.929687c18.851563-22.910156 31.207032-51.351563 34.238282-82.484375zm-271-137.753906c4.917969-.597656 9.921875-.910156 15-.910156s10.082031.3125 15 .910156v245.511718c-4.917969.59375-9.921875.910157-15 .910157s-10.082031-.3125-15-.910157zm69.667969 233.660156v-221.8125c11.027343 5.457031 21.128906 12.507812 30 20.855469v180.101562c-8.871094 8.347657-18.972657 15.398438-30 20.855469zm0 0"/></svg>